<svg xmlns="http://www.w3.org/2000/svg" viewBox="0 0 404.5 405.16"><defs><style>.cls-1,.cls-2,.cls-4{fill:#fff;}.cls-1,.cls-2,.cls-3,.cls-4{stroke:#fff;}.cls-2,.cls-3{stroke-miterlimit:10;}.cls-3{fill:none;stroke-width:40px;}.cls-4{stroke-linecap:round;stroke-width:25px;}</style></defs><title>Asset 2</title><g id="Layer_2" data-name="Layer 2"><g id="Layer_1-2" data-name="Layer 1"><rect class="cls-1" x="0.5" y="0.5" width="314.55" height="44.6" rx="11.4"/><path class="cls-2" d="M11.65,72.15,115.5,165.62a2.2,2.2,0,0,1,.74,1.66V293.52a2.18,2.18,0,0,0,.18.86c.87,2.07,5.22,10.82,15.14,8.42,10.93-2.65,58.22-47.14,60.83-49.6a1.24,1.24,0,0,1,.22-.18c.89-.64,6.7-4.9,6.7-7.41V168a2.28,2.28,0,0,1,.73-1.66l103.9-94.16a2.24,2.24,0,0,0-1.5-3.9H13.15A2.24,2.24,0,0,0,11.65,72.15Z"/><circle class="cls-3" cx="298.03" cy="298.69" r="86.47"/><line class="cls-4" x1="275.89" y1="276.93" x2="317.96" y2="319.63"/><line class="cls-4" x1="318.65" y1="276.8" x2="276.05" y2="320.65"/></g></g></svg>